<mxfile host="app.diagrams.net" modified="2023-07-17T15:03:49.686Z" agent="Mozilla/5.0 (Windows NT 10.0; Win64; x64) AppleWebKit/537.36 (KHTML, like Gecko) Chrome/114.0.0.0 Safari/537.36 Edg/114.0.1823.82" etag="8T0Aha4I4fGJ4spwsi2I" version="21.6.2" type="github">
  <diagram name="第 1 页" id="SlFH0UjXYAc3Q_tesHPk">
    <mxGraphModel dx="1078" dy="654" grid="1" gridSize="10" guides="1" tooltips="1" connect="1" arrows="1" fold="1" page="1" pageScale="1" pageWidth="827" pageHeight="1169" math="1" shadow="0">
      <root>
        <mxCell id="0" />
        <mxCell id="1" parent="0" />
        <mxCell id="TT1RHZWh7HSNXZt-K19b-3" value="" style="endArrow=none;html=1;rounded=0;strokeWidth=2;fillColor=#1ba1e2;strokeColor=#006EAF;" parent="1" source="TT1RHZWh7HSNXZt-K19b-6" edge="1">
          <mxGeometry width="50" height="50" relative="1" as="geometry">
            <mxPoint x="160" y="190" as="sourcePoint" />
            <mxPoint x="450" y="410" as="targetPoint" />
          </mxGeometry>
        </mxCell>
        <mxCell id="TT1RHZWh7HSNXZt-K19b-4" value="" style="endArrow=none;html=1;rounded=0;strokeWidth=2;fillColor=#1ba1e2;strokeColor=#006EAF;" parent="1" source="TT1RHZWh7HSNXZt-K19b-19" edge="1">
          <mxGeometry width="50" height="50" relative="1" as="geometry">
            <mxPoint x="160" y="190" as="sourcePoint" />
            <mxPoint x="660" y="60" as="targetPoint" />
          </mxGeometry>
        </mxCell>
        <mxCell id="TT1RHZWh7HSNXZt-K19b-5" value="" style="endArrow=none;html=1;rounded=0;strokeWidth=2;fillColor=#1ba1e2;strokeColor=#006EAF;" parent="1" target="TT1RHZWh7HSNXZt-K19b-6" edge="1">
          <mxGeometry width="50" height="50" relative="1" as="geometry">
            <mxPoint x="160" y="190" as="sourcePoint" />
            <mxPoint x="370" y="350" as="targetPoint" />
          </mxGeometry>
        </mxCell>
        <mxCell id="TT1RHZWh7HSNXZt-K19b-6" value="" style="ellipse;whiteSpace=wrap;html=1;aspect=fixed;fillColor=#1ba1e2;fontColor=#ffffff;strokeColor=none;" parent="1" vertex="1">
          <mxGeometry x="290" y="290" width="15" height="15" as="geometry" />
        </mxCell>
        <mxCell id="TT1RHZWh7HSNXZt-K19b-7" value="" style="ellipse;whiteSpace=wrap;html=1;aspect=fixed;fillColor=none;fontColor=#ffffff;strokeColor=#000000;" parent="1" vertex="1">
          <mxGeometry x="170" y="240" width="15" height="15" as="geometry" />
        </mxCell>
        <mxCell id="TT1RHZWh7HSNXZt-K19b-8" value="" style="ellipse;whiteSpace=wrap;html=1;aspect=fixed;fillColor=none;fontColor=#ffffff;strokeColor=#000000;" parent="1" vertex="1">
          <mxGeometry x="220" y="280" width="15" height="15" as="geometry" />
        </mxCell>
        <mxCell id="TT1RHZWh7HSNXZt-K19b-9" value="" style="ellipse;whiteSpace=wrap;html=1;aspect=fixed;fillColor=#1ba1e2;fontColor=#ffffff;strokeColor=#006EAF;" parent="1" vertex="1">
          <mxGeometry x="355" y="270" width="15" height="15" as="geometry" />
        </mxCell>
        <mxCell id="TT1RHZWh7HSNXZt-K19b-10" value="" style="ellipse;whiteSpace=wrap;html=1;aspect=fixed;fillColor=#1ba1e2;fontColor=#ffffff;strokeColor=#006EAF;" parent="1" vertex="1">
          <mxGeometry x="425" y="224" width="15" height="15" as="geometry" />
        </mxCell>
        <mxCell id="TT1RHZWh7HSNXZt-K19b-11" value="" style="ellipse;whiteSpace=wrap;html=1;aspect=fixed;fillColor=#1ba1e2;fontColor=#ffffff;strokeColor=#006EAF;" parent="1" vertex="1">
          <mxGeometry x="470" y="160" width="15" height="15" as="geometry" />
        </mxCell>
        <mxCell id="TT1RHZWh7HSNXZt-K19b-12" value="" style="endArrow=open;html=1;rounded=0;dashed=1;endFill=0;exitX=0.5;exitY=1;exitDx=0;exitDy=0;entryX=0;entryY=0;entryDx=0;entryDy=0;" parent="1" source="TT1RHZWh7HSNXZt-K19b-23" target="TT1RHZWh7HSNXZt-K19b-7" edge="1">
          <mxGeometry width="50" height="50" relative="1" as="geometry">
            <mxPoint x="157.5" y="195" as="sourcePoint" />
            <mxPoint x="140" y="253" as="targetPoint" />
          </mxGeometry>
        </mxCell>
        <mxCell id="TT1RHZWh7HSNXZt-K19b-13" value="" style="endArrow=open;html=1;rounded=0;dashed=1;endFill=0;exitX=1;exitY=1;exitDx=0;exitDy=0;entryX=0;entryY=0.5;entryDx=0;entryDy=0;" parent="1" source="TT1RHZWh7HSNXZt-K19b-7" target="TT1RHZWh7HSNXZt-K19b-8" edge="1">
          <mxGeometry width="50" height="50" relative="1" as="geometry">
            <mxPoint x="171" y="273" as="sourcePoint" />
            <mxPoint x="192" y="322" as="targetPoint" />
          </mxGeometry>
        </mxCell>
        <mxCell id="TT1RHZWh7HSNXZt-K19b-14" value="" style="endArrow=open;html=1;rounded=0;dashed=1;endFill=0;exitX=1;exitY=1;exitDx=0;exitDy=0;entryX=0;entryY=0.5;entryDx=0;entryDy=0;" parent="1" source="TT1RHZWh7HSNXZt-K19b-8" target="TT1RHZWh7HSNXZt-K19b-6" edge="1">
          <mxGeometry width="50" height="50" relative="1" as="geometry">
            <mxPoint x="231" y="305" as="sourcePoint" />
            <mxPoint x="273" y="339" as="targetPoint" />
          </mxGeometry>
        </mxCell>
        <mxCell id="TT1RHZWh7HSNXZt-K19b-15" value="" style="endArrow=open;html=1;rounded=0;dashed=1;endFill=0;exitX=1;exitY=0.5;exitDx=0;exitDy=0;entryX=0;entryY=1;entryDx=0;entryDy=0;fillColor=#1ba1e2;strokeColor=#006EAF;strokeWidth=2;" parent="1" source="TT1RHZWh7HSNXZt-K19b-6" target="TT1RHZWh7HSNXZt-K19b-9" edge="1">
          <mxGeometry width="50" height="50" relative="1" as="geometry">
            <mxPoint x="280" y="239" as="sourcePoint" />
            <mxPoint x="339" y="245" as="targetPoint" />
          </mxGeometry>
        </mxCell>
        <mxCell id="TT1RHZWh7HSNXZt-K19b-16" value="" style="endArrow=open;html=1;rounded=0;dashed=1;endFill=0;exitX=1;exitY=0.5;exitDx=0;exitDy=0;entryX=0;entryY=1;entryDx=0;entryDy=0;fillColor=#1ba1e2;strokeColor=#006EAF;strokeWidth=2;" parent="1" source="TT1RHZWh7HSNXZt-K19b-9" target="TT1RHZWh7HSNXZt-K19b-10" edge="1">
          <mxGeometry width="50" height="50" relative="1" as="geometry">
            <mxPoint x="350" y="237.5" as="sourcePoint" />
            <mxPoint x="397" y="217.5" as="targetPoint" />
          </mxGeometry>
        </mxCell>
        <mxCell id="TT1RHZWh7HSNXZt-K19b-17" value="" style="endArrow=open;html=1;rounded=0;dashed=1;endFill=0;exitX=1;exitY=0;exitDx=0;exitDy=0;entryX=0.5;entryY=1;entryDx=0;entryDy=0;fillColor=#1ba1e2;strokeColor=#006EAF;strokeWidth=2;" parent="1" source="TT1RHZWh7HSNXZt-K19b-10" target="TT1RHZWh7HSNXZt-K19b-11" edge="1">
          <mxGeometry width="50" height="50" relative="1" as="geometry">
            <mxPoint x="414" y="197.5" as="sourcePoint" />
            <mxPoint x="461" y="177.5" as="targetPoint" />
          </mxGeometry>
        </mxCell>
        <mxCell id="TT1RHZWh7HSNXZt-K19b-18" value="" style="endArrow=none;html=1;rounded=0;strokeWidth=2;fillColor=#1ba1e2;strokeColor=#006EAF;" parent="1" target="TT1RHZWh7HSNXZt-K19b-19" edge="1">
          <mxGeometry width="50" height="50" relative="1" as="geometry">
            <mxPoint x="160" y="190" as="sourcePoint" />
            <mxPoint x="660" y="60" as="targetPoint" />
          </mxGeometry>
        </mxCell>
        <mxCell id="TT1RHZWh7HSNXZt-K19b-19" value="" style="ellipse;whiteSpace=wrap;html=1;aspect=fixed;fillColor=#1ba1e2;fontColor=#ffffff;strokeColor=none;" parent="1" vertex="1">
          <mxGeometry x="500" y="90" width="15" height="15" as="geometry" />
        </mxCell>
        <mxCell id="TT1RHZWh7HSNXZt-K19b-20" value="" style="endArrow=open;html=1;rounded=0;dashed=1;endFill=0;exitX=1;exitY=0;exitDx=0;exitDy=0;entryX=0.5;entryY=1;entryDx=0;entryDy=0;strokeWidth=2;fillColor=#1ba1e2;strokeColor=#006EAF;" parent="1" source="TT1RHZWh7HSNXZt-K19b-11" target="TT1RHZWh7HSNXZt-K19b-19" edge="1">
          <mxGeometry width="50" height="50" relative="1" as="geometry">
            <mxPoint x="500" y="160" as="sourcePoint" />
            <mxPoint x="540" y="109" as="targetPoint" />
          </mxGeometry>
        </mxCell>
        <mxCell id="TT1RHZWh7HSNXZt-K19b-22" value="" style="ellipse;whiteSpace=wrap;html=1;aspect=fixed;fillColor=#FFCCCC;fontColor=#ffffff;strokeColor=none;" parent="1" vertex="1">
          <mxGeometry x="450" y="195" width="15" height="15" as="geometry" />
        </mxCell>
        <mxCell id="TT1RHZWh7HSNXZt-K19b-23" value="" style="ellipse;whiteSpace=wrap;html=1;aspect=fixed;fillColor=#1ba1e2;fontColor=#ffffff;strokeColor=none;" parent="1" vertex="1">
          <mxGeometry x="150" y="180" width="15" height="15" as="geometry" />
        </mxCell>
        <mxCell id="TT1RHZWh7HSNXZt-K19b-24" value="" style="endArrow=classicThin;html=1;rounded=0;fillColor=#e51400;strokeColor=#E51400;strokeWidth=2;dashed=1;endFill=1;entryX=0;entryY=0.5;entryDx=0;entryDy=0;exitX=1;exitY=1;exitDx=0;exitDy=0;" parent="1" source="TT1RHZWh7HSNXZt-K19b-23" target="TT1RHZWh7HSNXZt-K19b-22" edge="1">
          <mxGeometry width="50" height="50" relative="1" as="geometry">
            <mxPoint x="180" y="170" as="sourcePoint" />
            <mxPoint x="440" y="210" as="targetPoint" />
          </mxGeometry>
        </mxCell>
        <mxCell id="TT1RHZWh7HSNXZt-K19b-25" value="" style="ellipse;whiteSpace=wrap;html=1;aspect=fixed;fillColor=#e51400;fontColor=#ffffff;strokeColor=none;" parent="1" vertex="1">
          <mxGeometry x="753" y="202" width="15" height="15" as="geometry" />
        </mxCell>
        <mxCell id="TT1RHZWh7HSNXZt-K19b-27" value="&lt;font style=&quot;font-size: 18px;&quot;&gt;$$\tilde{\boldsymbol{x}}_{i}^{j}$$&lt;/font&gt;" style="text;html=1;strokeColor=none;fillColor=none;align=center;verticalAlign=middle;whiteSpace=wrap;rounded=0;" parent="1" vertex="1">
          <mxGeometry x="744.25" y="175" width="32.5" height="25" as="geometry" />
        </mxCell>
        <mxCell id="TT1RHZWh7HSNXZt-K19b-28" value="&lt;font style=&quot;font-size: 18px;&quot;&gt;$${\boldsymbol{x}}_{i}^{j}$$&lt;/font&gt;" style="text;html=1;strokeColor=none;fillColor=none;align=center;verticalAlign=middle;whiteSpace=wrap;rounded=0;" parent="1" vertex="1">
          <mxGeometry x="122.5" y="150" width="80" height="19" as="geometry" />
        </mxCell>
        <mxCell id="TT1RHZWh7HSNXZt-K19b-29" value="&lt;font style=&quot;font-size: 16px;&quot;&gt;$$x^{\prime}_f$$&lt;/font&gt;" style="text;html=1;strokeColor=none;fillColor=none;align=center;verticalAlign=middle;whiteSpace=wrap;rounded=0;" parent="1" vertex="1">
          <mxGeometry x="285" y="310" width="25" height="20" as="geometry" />
        </mxCell>
        <mxCell id="TT1RHZWh7HSNXZt-K19b-30" value="&lt;font style=&quot;font-size: 16px;&quot;&gt;$$x^{\prime}_e$$&lt;/font&gt;" style="text;html=1;strokeColor=none;fillColor=none;align=center;verticalAlign=middle;whiteSpace=wrap;rounded=0;" parent="1" vertex="1">
          <mxGeometry x="499" y="66" width="25" height="20" as="geometry" />
        </mxCell>
        <mxCell id="TT1RHZWh7HSNXZt-K19b-31" value="" style="endArrow=none;html=1;strokeWidth=1.5;curved=1;" parent="1" edge="1">
          <mxGeometry width="50" height="50" relative="1" as="geometry">
            <mxPoint x="220" y="360" as="sourcePoint" />
            <mxPoint x="240" y="40" as="targetPoint" />
            <Array as="points">
              <mxPoint x="310" y="200" />
              <mxPoint x="310" y="80" />
            </Array>
          </mxGeometry>
        </mxCell>
        <mxCell id="TT1RHZWh7HSNXZt-K19b-32" value="&lt;font style=&quot;font-size: 18px;&quot;&gt;决策边界&lt;/font&gt;" style="text;html=1;strokeColor=none;fillColor=none;align=center;verticalAlign=middle;whiteSpace=wrap;rounded=0;" parent="1" vertex="1">
          <mxGeometry x="285" y="50" width="80" height="30" as="geometry" />
        </mxCell>
        <mxCell id="TT1RHZWh7HSNXZt-K19b-33" value="&lt;font style=&quot;font-size: 16px;&quot;&gt;对抗空间&lt;/font&gt;" style="text;html=1;strokeColor=none;fillColor=none;align=center;verticalAlign=middle;whiteSpace=wrap;rounded=0;" parent="1" vertex="1">
          <mxGeometry x="600" y="330" width="70" height="20" as="geometry" />
        </mxCell>
        <mxCell id="TT1RHZWh7HSNXZt-K19b-34" value="&lt;font style=&quot;font-size: 16px;&quot;&gt;非对抗空间&lt;/font&gt;" style="text;html=1;strokeColor=none;fillColor=none;align=center;verticalAlign=middle;whiteSpace=wrap;rounded=0;" parent="1" vertex="1">
          <mxGeometry x="122.5" y="330" width="87.5" height="20" as="geometry" />
        </mxCell>
        <mxCell id="TT1RHZWh7HSNXZt-K19b-35" value="" style="endArrow=open;html=1;rounded=0;dashed=1;endFill=0;exitX=1;exitY=1;exitDx=0;exitDy=0;entryX=0;entryY=0;entryDx=0;entryDy=0;fillColor=#f5f5f5;strokeColor=#666666;strokeWidth=1;" parent="1" source="TT1RHZWh7HSNXZt-K19b-23" target="TT1RHZWh7HSNXZt-K19b-9" edge="1">
          <mxGeometry width="50" height="50" relative="1" as="geometry">
            <mxPoint x="310" y="221" as="sourcePoint" />
            <mxPoint x="367" y="180" as="targetPoint" />
          </mxGeometry>
        </mxCell>
        <mxCell id="TT1RHZWh7HSNXZt-K19b-36" value="" style="endArrow=open;html=1;rounded=0;dashed=1;endFill=0;exitX=1;exitY=1;exitDx=0;exitDy=0;entryX=0;entryY=0.5;entryDx=0;entryDy=0;fillColor=#f5f5f5;strokeColor=#666666;strokeWidth=1;" parent="1" source="TT1RHZWh7HSNXZt-K19b-23" target="TT1RHZWh7HSNXZt-K19b-10" edge="1">
          <mxGeometry width="50" height="50" relative="1" as="geometry">
            <mxPoint x="220" y="191" as="sourcePoint" />
            <mxPoint x="414" y="270" as="targetPoint" />
          </mxGeometry>
        </mxCell>
        <mxCell id="TT1RHZWh7HSNXZt-K19b-37" value="" style="endArrow=open;html=1;rounded=0;dashed=1;endFill=0;exitX=1;exitY=0.5;exitDx=0;exitDy=0;entryX=0;entryY=0.5;entryDx=0;entryDy=0;fillColor=#f5f5f5;strokeColor=#666666;strokeWidth=1;" parent="1" source="TT1RHZWh7HSNXZt-K19b-23" target="TT1RHZWh7HSNXZt-K19b-11" edge="1">
          <mxGeometry width="50" height="50" relative="1" as="geometry">
            <mxPoint x="231.5" y="185" as="sourcePoint" />
            <mxPoint x="493.5" y="224" as="targetPoint" />
          </mxGeometry>
        </mxCell>
        <mxCell id="TT1RHZWh7HSNXZt-K19b-40" value="" style="endArrow=classicThin;html=1;rounded=0;fillColor=#e51400;strokeColor=#E51400;strokeWidth=2;dashed=1;endFill=1;entryX=0;entryY=0.5;entryDx=0;entryDy=0;exitX=1;exitY=0.5;exitDx=0;exitDy=0;dashPattern=1 1;" parent="1" source="TT1RHZWh7HSNXZt-K19b-22" edge="1">
          <mxGeometry width="50" height="50" relative="1" as="geometry">
            <mxPoint x="465" y="200" as="sourcePoint" />
            <mxPoint x="752" y="210" as="targetPoint" />
          </mxGeometry>
        </mxCell>
        <mxCell id="TT1RHZWh7HSNXZt-K19b-41" value="" style="ellipse;whiteSpace=wrap;html=1;aspect=fixed;fillColor=#e51400;fontColor=#ffffff;strokeColor=none;" parent="1" vertex="1">
          <mxGeometry x="400" y="193" width="15" height="15" as="geometry" />
        </mxCell>
        <mxCell id="TT1RHZWh7HSNXZt-K19b-42" value="" style="endArrow=none;html=1;rounded=0;" parent="1" edge="1">
          <mxGeometry width="50" height="50" relative="1" as="geometry">
            <mxPoint x="320" y="177" as="sourcePoint" />
            <mxPoint x="660" y="160" as="targetPoint" />
          </mxGeometry>
        </mxCell>
        <mxCell id="TT1RHZWh7HSNXZt-K19b-43" value="" style="endArrow=none;html=1;rounded=0;" parent="1" edge="1">
          <mxGeometry width="50" height="50" relative="1" as="geometry">
            <mxPoint x="310" y="215" as="sourcePoint" />
            <mxPoint x="640" y="260" as="targetPoint" />
          </mxGeometry>
        </mxCell>
        <mxCell id="TT1RHZWh7HSNXZt-K19b-44" value="" style="endArrow=none;html=1;rounded=0;" parent="1" edge="1">
          <mxGeometry width="50" height="50" relative="1" as="geometry">
            <mxPoint x="310" y="216" as="sourcePoint" />
            <mxPoint x="320" y="176" as="targetPoint" />
          </mxGeometry>
        </mxCell>
        <mxCell id="TT1RHZWh7HSNXZt-K19b-45" value="" style="endArrow=none;html=1;rounded=0;" parent="1" edge="1">
          <mxGeometry width="50" height="50" relative="1" as="geometry">
            <mxPoint x="640" y="260" as="sourcePoint" />
            <mxPoint x="660" y="160" as="targetPoint" />
          </mxGeometry>
        </mxCell>
        <mxCell id="TT1RHZWh7HSNXZt-K19b-47" value="&lt;font style=&quot;font-size: 18px;&quot;&gt;$$\bar{\boldsymbol{x}}_{i}^{j}$$&lt;/font&gt;" style="text;whiteSpace=wrap;html=1;" parent="1" vertex="1">
          <mxGeometry x="462.5" y="183.25" width="30" height="38.5" as="geometry" />
        </mxCell>
        <mxCell id="TT1RHZWh7HSNXZt-K19b-49" value="&lt;font style=&quot;font-size: 18px;&quot;&gt;$$\hat{\boldsymbol{x}}_{i}^{j}$$&lt;/font&gt;" style="text;whiteSpace=wrap;html=1;" parent="1" vertex="1">
          <mxGeometry x="411" y="147" width="30" height="38.5" as="geometry" />
        </mxCell>
        <mxCell id="TT1RHZWh7HSNXZt-K19b-50" value="1.5" style="text;html=1;align=center;verticalAlign=middle;resizable=0;points=[];autosize=1;strokeColor=none;fillColor=none;" parent="1" vertex="1">
          <mxGeometry x="645" y="130" width="40" height="30" as="geometry" />
        </mxCell>
        <mxCell id="TT1RHZWh7HSNXZt-K19b-51" value="2" style="text;html=1;align=center;verticalAlign=middle;resizable=0;points=[];autosize=1;strokeColor=none;fillColor=none;" parent="1" vertex="1">
          <mxGeometry x="745.5" y="130" width="30" height="30" as="geometry" />
        </mxCell>
        <mxCell id="TT1RHZWh7HSNXZt-K19b-52" value="1" style="text;html=1;align=center;verticalAlign=middle;resizable=0;points=[];autosize=1;strokeColor=none;fillColor=none;" parent="1" vertex="1">
          <mxGeometry x="464" y="130" width="30" height="30" as="geometry" />
        </mxCell>
        <mxCell id="TT1RHZWh7HSNXZt-K19b-53" value="0.5" style="text;html=1;align=center;verticalAlign=middle;resizable=0;points=[];autosize=1;strokeColor=none;fillColor=none;" parent="1" vertex="1">
          <mxGeometry x="310" y="139" width="40" height="30" as="geometry" />
        </mxCell>
        <mxCell id="bdcaNcctBoLjaKUvEYJE-46" value="" style="endArrow=none;html=1;rounded=0;strokeWidth=2;fillColor=#1ba1e2;strokeColor=#006EAF;" edge="1" parent="1" source="bdcaNcctBoLjaKUvEYJE-49">
          <mxGeometry width="50" height="50" relative="1" as="geometry">
            <mxPoint x="151.25" y="640" as="sourcePoint" />
            <mxPoint x="441.25" y="860" as="targetPoint" />
          </mxGeometry>
        </mxCell>
        <mxCell id="bdcaNcctBoLjaKUvEYJE-47" value="" style="endArrow=none;html=1;rounded=0;strokeWidth=2;fillColor=#1ba1e2;strokeColor=#006EAF;" edge="1" parent="1" source="bdcaNcctBoLjaKUvEYJE-62">
          <mxGeometry width="50" height="50" relative="1" as="geometry">
            <mxPoint x="151.25" y="640" as="sourcePoint" />
            <mxPoint x="651.25" y="510" as="targetPoint" />
          </mxGeometry>
        </mxCell>
        <mxCell id="bdcaNcctBoLjaKUvEYJE-48" value="" style="endArrow=none;html=1;rounded=0;strokeWidth=2;fillColor=#1ba1e2;strokeColor=#006EAF;" edge="1" parent="1" target="bdcaNcctBoLjaKUvEYJE-49">
          <mxGeometry width="50" height="50" relative="1" as="geometry">
            <mxPoint x="151.25" y="640" as="sourcePoint" />
            <mxPoint x="361.25" y="800" as="targetPoint" />
          </mxGeometry>
        </mxCell>
        <mxCell id="bdcaNcctBoLjaKUvEYJE-49" value="" style="ellipse;whiteSpace=wrap;html=1;aspect=fixed;fillColor=#1ba1e2;fontColor=#ffffff;strokeColor=none;" vertex="1" parent="1">
          <mxGeometry x="281.25" y="740" width="15" height="15" as="geometry" />
        </mxCell>
        <mxCell id="bdcaNcctBoLjaKUvEYJE-50" value="" style="ellipse;whiteSpace=wrap;html=1;aspect=fixed;fillColor=none;fontColor=#ffffff;strokeColor=#000000;" vertex="1" parent="1">
          <mxGeometry x="161.25" y="690" width="15" height="15" as="geometry" />
        </mxCell>
        <mxCell id="bdcaNcctBoLjaKUvEYJE-51" value="" style="ellipse;whiteSpace=wrap;html=1;aspect=fixed;fillColor=none;fontColor=#ffffff;strokeColor=#000000;" vertex="1" parent="1">
          <mxGeometry x="211.25" y="730" width="15" height="15" as="geometry" />
        </mxCell>
        <mxCell id="bdcaNcctBoLjaKUvEYJE-52" value="" style="ellipse;whiteSpace=wrap;html=1;aspect=fixed;fillColor=#1ba1e2;fontColor=#ffffff;strokeColor=#006EAF;" vertex="1" parent="1">
          <mxGeometry x="346.25" y="720" width="15" height="15" as="geometry" />
        </mxCell>
        <mxCell id="bdcaNcctBoLjaKUvEYJE-53" value="" style="ellipse;whiteSpace=wrap;html=1;aspect=fixed;fillColor=#1ba1e2;fontColor=#ffffff;strokeColor=#006EAF;" vertex="1" parent="1">
          <mxGeometry x="416.25" y="674" width="15" height="15" as="geometry" />
        </mxCell>
        <mxCell id="bdcaNcctBoLjaKUvEYJE-54" value="" style="ellipse;whiteSpace=wrap;html=1;aspect=fixed;fillColor=#1ba1e2;fontColor=#ffffff;strokeColor=#006EAF;" vertex="1" parent="1">
          <mxGeometry x="461.25" y="610" width="15" height="15" as="geometry" />
        </mxCell>
        <mxCell id="bdcaNcctBoLjaKUvEYJE-55" value="" style="endArrow=open;html=1;rounded=0;dashed=1;endFill=0;exitX=0.5;exitY=1;exitDx=0;exitDy=0;entryX=0;entryY=0;entryDx=0;entryDy=0;" edge="1" parent="1" source="bdcaNcctBoLjaKUvEYJE-65" target="bdcaNcctBoLjaKUvEYJE-50">
          <mxGeometry width="50" height="50" relative="1" as="geometry">
            <mxPoint x="148.75" y="645" as="sourcePoint" />
            <mxPoint x="131.25" y="703" as="targetPoint" />
          </mxGeometry>
        </mxCell>
        <mxCell id="bdcaNcctBoLjaKUvEYJE-56" value="" style="endArrow=open;html=1;rounded=0;dashed=1;endFill=0;exitX=1;exitY=1;exitDx=0;exitDy=0;entryX=0;entryY=0.5;entryDx=0;entryDy=0;" edge="1" parent="1" source="bdcaNcctBoLjaKUvEYJE-50" target="bdcaNcctBoLjaKUvEYJE-51">
          <mxGeometry width="50" height="50" relative="1" as="geometry">
            <mxPoint x="162.25" y="723" as="sourcePoint" />
            <mxPoint x="183.25" y="772" as="targetPoint" />
          </mxGeometry>
        </mxCell>
        <mxCell id="bdcaNcctBoLjaKUvEYJE-57" value="" style="endArrow=open;html=1;rounded=0;dashed=1;endFill=0;exitX=1;exitY=1;exitDx=0;exitDy=0;entryX=0;entryY=0.5;entryDx=0;entryDy=0;" edge="1" parent="1" source="bdcaNcctBoLjaKUvEYJE-51" target="bdcaNcctBoLjaKUvEYJE-49">
          <mxGeometry width="50" height="50" relative="1" as="geometry">
            <mxPoint x="222.25" y="755" as="sourcePoint" />
            <mxPoint x="264.25" y="789" as="targetPoint" />
          </mxGeometry>
        </mxCell>
        <mxCell id="bdcaNcctBoLjaKUvEYJE-58" value="" style="endArrow=open;html=1;rounded=0;dashed=1;endFill=0;exitX=1;exitY=0.5;exitDx=0;exitDy=0;entryX=0;entryY=1;entryDx=0;entryDy=0;fillColor=#1ba1e2;strokeColor=#006EAF;strokeWidth=1;" edge="1" parent="1" source="bdcaNcctBoLjaKUvEYJE-49" target="bdcaNcctBoLjaKUvEYJE-52">
          <mxGeometry width="50" height="50" relative="1" as="geometry">
            <mxPoint x="271.25" y="689" as="sourcePoint" />
            <mxPoint x="330.25" y="695" as="targetPoint" />
          </mxGeometry>
        </mxCell>
        <mxCell id="bdcaNcctBoLjaKUvEYJE-59" value="" style="endArrow=open;html=1;rounded=0;dashed=1;endFill=0;exitX=1;exitY=0.5;exitDx=0;exitDy=0;entryX=0;entryY=1;entryDx=0;entryDy=0;fillColor=#1ba1e2;strokeColor=#006EAF;strokeWidth=1;" edge="1" parent="1" source="bdcaNcctBoLjaKUvEYJE-52" target="bdcaNcctBoLjaKUvEYJE-53">
          <mxGeometry width="50" height="50" relative="1" as="geometry">
            <mxPoint x="341.25" y="687.5" as="sourcePoint" />
            <mxPoint x="388.25" y="667.5" as="targetPoint" />
          </mxGeometry>
        </mxCell>
        <mxCell id="bdcaNcctBoLjaKUvEYJE-60" value="" style="endArrow=open;html=1;rounded=0;dashed=1;endFill=0;exitX=1;exitY=0;exitDx=0;exitDy=0;entryX=0.5;entryY=1;entryDx=0;entryDy=0;fillColor=#1ba1e2;strokeColor=#006EAF;strokeWidth=1;" edge="1" parent="1" source="bdcaNcctBoLjaKUvEYJE-53" target="bdcaNcctBoLjaKUvEYJE-54">
          <mxGeometry width="50" height="50" relative="1" as="geometry">
            <mxPoint x="405.25" y="647.5" as="sourcePoint" />
            <mxPoint x="452.25" y="627.5" as="targetPoint" />
          </mxGeometry>
        </mxCell>
        <mxCell id="bdcaNcctBoLjaKUvEYJE-61" value="" style="endArrow=none;html=1;rounded=0;strokeWidth=2;fillColor=#1ba1e2;strokeColor=#006EAF;" edge="1" parent="1" target="bdcaNcctBoLjaKUvEYJE-62">
          <mxGeometry width="50" height="50" relative="1" as="geometry">
            <mxPoint x="151.25" y="640" as="sourcePoint" />
            <mxPoint x="651.25" y="510" as="targetPoint" />
          </mxGeometry>
        </mxCell>
        <mxCell id="bdcaNcctBoLjaKUvEYJE-62" value="" style="ellipse;whiteSpace=wrap;html=1;aspect=fixed;fillColor=#1ba1e2;fontColor=#ffffff;strokeColor=none;" vertex="1" parent="1">
          <mxGeometry x="491.25" y="540" width="15" height="15" as="geometry" />
        </mxCell>
        <mxCell id="bdcaNcctBoLjaKUvEYJE-63" value="" style="endArrow=open;html=1;rounded=0;dashed=1;endFill=0;exitX=1;exitY=0;exitDx=0;exitDy=0;entryX=0.5;entryY=1;entryDx=0;entryDy=0;strokeWidth=1;fillColor=#1ba1e2;strokeColor=#006EAF;" edge="1" parent="1" source="bdcaNcctBoLjaKUvEYJE-54" target="bdcaNcctBoLjaKUvEYJE-62">
          <mxGeometry width="50" height="50" relative="1" as="geometry">
            <mxPoint x="491.25" y="610" as="sourcePoint" />
            <mxPoint x="531.25" y="559" as="targetPoint" />
          </mxGeometry>
        </mxCell>
        <mxCell id="bdcaNcctBoLjaKUvEYJE-65" value="" style="ellipse;whiteSpace=wrap;html=1;aspect=fixed;fillColor=#1ba1e2;fontColor=#ffffff;strokeColor=none;" vertex="1" parent="1">
          <mxGeometry x="141.25" y="630" width="15" height="15" as="geometry" />
        </mxCell>
        <mxCell id="bdcaNcctBoLjaKUvEYJE-66" value="" style="endArrow=classicThin;html=1;rounded=0;fillColor=#e51400;strokeColor=#E51400;strokeWidth=2;dashed=1;endFill=1;exitX=1;exitY=1;exitDx=0;exitDy=0;entryX=0;entryY=0.5;entryDx=0;entryDy=0;" edge="1" parent="1" source="bdcaNcctBoLjaKUvEYJE-65" target="bdcaNcctBoLjaKUvEYJE-93">
          <mxGeometry width="50" height="50" relative="1" as="geometry">
            <mxPoint x="171.25" y="620" as="sourcePoint" />
            <mxPoint x="340" y="650" as="targetPoint" />
          </mxGeometry>
        </mxCell>
        <mxCell id="bdcaNcctBoLjaKUvEYJE-67" value="" style="ellipse;whiteSpace=wrap;html=1;aspect=fixed;fillColor=#e51400;fontColor=#ffffff;strokeColor=none;" vertex="1" parent="1">
          <mxGeometry x="637.5" y="636" width="15" height="15" as="geometry" />
        </mxCell>
        <mxCell id="bdcaNcctBoLjaKUvEYJE-68" value="&lt;font style=&quot;font-size: 18px;&quot;&gt;$$\tilde{\boldsymbol{x}}_{i}^{j}$$&lt;/font&gt;" style="text;html=1;strokeColor=none;fillColor=none;align=center;verticalAlign=middle;whiteSpace=wrap;rounded=0;" vertex="1" parent="1">
          <mxGeometry x="628.75" y="609" width="32.5" height="25" as="geometry" />
        </mxCell>
        <mxCell id="bdcaNcctBoLjaKUvEYJE-69" value="&lt;font style=&quot;font-size: 18px;&quot;&gt;$${\boldsymbol{x}}_{i}^{j}$$&lt;/font&gt;" style="text;html=1;strokeColor=none;fillColor=none;align=center;verticalAlign=middle;whiteSpace=wrap;rounded=0;" vertex="1" parent="1">
          <mxGeometry x="113.75" y="600" width="80" height="19" as="geometry" />
        </mxCell>
        <mxCell id="bdcaNcctBoLjaKUvEYJE-70" value="&lt;font style=&quot;font-size: 16px;&quot;&gt;$$x^{\prime}_f$$&lt;/font&gt;" style="text;html=1;strokeColor=none;fillColor=none;align=center;verticalAlign=middle;whiteSpace=wrap;rounded=0;" vertex="1" parent="1">
          <mxGeometry x="276.25" y="760" width="25" height="20" as="geometry" />
        </mxCell>
        <mxCell id="bdcaNcctBoLjaKUvEYJE-71" value="&lt;font style=&quot;font-size: 16px;&quot;&gt;$$x^{\prime}_e$$&lt;/font&gt;" style="text;html=1;strokeColor=none;fillColor=none;align=center;verticalAlign=middle;whiteSpace=wrap;rounded=0;" vertex="1" parent="1">
          <mxGeometry x="490.25" y="516" width="25" height="20" as="geometry" />
        </mxCell>
        <mxCell id="bdcaNcctBoLjaKUvEYJE-72" value="" style="endArrow=none;html=1;strokeWidth=1.5;curved=1;" edge="1" parent="1">
          <mxGeometry width="50" height="50" relative="1" as="geometry">
            <mxPoint x="211.25" y="810" as="sourcePoint" />
            <mxPoint x="231.25" y="490" as="targetPoint" />
            <Array as="points">
              <mxPoint x="301.25" y="650" />
              <mxPoint x="301.25" y="530" />
            </Array>
          </mxGeometry>
        </mxCell>
        <mxCell id="bdcaNcctBoLjaKUvEYJE-73" value="&lt;font style=&quot;font-size: 18px;&quot;&gt;决策边界&lt;/font&gt;" style="text;html=1;strokeColor=none;fillColor=none;align=center;verticalAlign=middle;whiteSpace=wrap;rounded=0;" vertex="1" parent="1">
          <mxGeometry x="276.25" y="500" width="80" height="30" as="geometry" />
        </mxCell>
        <mxCell id="bdcaNcctBoLjaKUvEYJE-74" value="&lt;font style=&quot;font-size: 16px;&quot;&gt;对抗空间&lt;/font&gt;" style="text;html=1;strokeColor=none;fillColor=none;align=center;verticalAlign=middle;whiteSpace=wrap;rounded=0;" vertex="1" parent="1">
          <mxGeometry x="591.25" y="780" width="70" height="20" as="geometry" />
        </mxCell>
        <mxCell id="bdcaNcctBoLjaKUvEYJE-75" value="&lt;font style=&quot;font-size: 16px;&quot;&gt;非对抗空间&lt;/font&gt;" style="text;html=1;strokeColor=none;fillColor=none;align=center;verticalAlign=middle;whiteSpace=wrap;rounded=0;" vertex="1" parent="1">
          <mxGeometry x="113.75" y="780" width="87.5" height="20" as="geometry" />
        </mxCell>
        <mxCell id="bdcaNcctBoLjaKUvEYJE-85" value="&lt;font style=&quot;font-size: 18px;&quot;&gt;$$\bar{\boldsymbol{x}}_{i}^{j}$$&lt;/font&gt;" style="text;whiteSpace=wrap;html=1;" vertex="1" parent="1">
          <mxGeometry x="408.75" y="618.25" width="30" height="38.5" as="geometry" />
        </mxCell>
        <mxCell id="bdcaNcctBoLjaKUvEYJE-86" value="&lt;font style=&quot;font-size: 18px;&quot;&gt;$$\hat{\boldsymbol{x}}_{i}^{j}$$&lt;/font&gt;" style="text;whiteSpace=wrap;html=1;" vertex="1" parent="1">
          <mxGeometry x="350" y="590.25" width="30" height="38.5" as="geometry" />
        </mxCell>
        <mxCell id="bdcaNcctBoLjaKUvEYJE-91" value="" style="ellipse;whiteSpace=wrap;html=1;aspect=fixed;fillColor=#e51400;fontColor=#ffffff;strokeColor=none;" vertex="1" parent="1">
          <mxGeometry x="335" y="635" width="15" height="15" as="geometry" />
        </mxCell>
        <mxCell id="bdcaNcctBoLjaKUvEYJE-94" value="" style="endArrow=none;html=1;rounded=0;dashed=1;endFill=0;exitX=1;exitY=0;exitDx=0;exitDy=0;entryX=0;entryY=1;entryDx=0;entryDy=0;strokeWidth=2;fillColor=#1ba1e2;strokeColor=#006EAF;" edge="1" parent="1" source="bdcaNcctBoLjaKUvEYJE-49" target="bdcaNcctBoLjaKUvEYJE-62">
          <mxGeometry width="50" height="50" relative="1" as="geometry">
            <mxPoint x="406.25" y="642" as="sourcePoint" />
            <mxPoint x="431.25" y="585" as="targetPoint" />
          </mxGeometry>
        </mxCell>
        <mxCell id="bdcaNcctBoLjaKUvEYJE-93" value="" style="ellipse;whiteSpace=wrap;html=1;aspect=fixed;fillColor=#FFCCCC;fontColor=#ffffff;strokeColor=none;" vertex="1" parent="1">
          <mxGeometry x="390" y="637" width="13" height="13" as="geometry" />
        </mxCell>
        <mxCell id="bdcaNcctBoLjaKUvEYJE-96" value="" style="endArrow=classicThin;html=1;rounded=0;fillColor=#fad9d5;strokeColor=#EA6B66;strokeWidth=2;dashed=1;endFill=1;exitX=1;exitY=1;exitDx=0;exitDy=0;entryX=0;entryY=0.5;entryDx=0;entryDy=0;" edge="1" parent="1">
          <mxGeometry width="50" height="50" relative="1" as="geometry">
            <mxPoint x="403" y="644" as="sourcePoint" />
            <mxPoint x="639" y="645" as="targetPoint" />
          </mxGeometry>
        </mxCell>
        <mxCell id="bdcaNcctBoLjaKUvEYJE-107" value="" style="endArrow=none;html=1;rounded=0;strokeWidth=2;fillColor=#1ba1e2;strokeColor=#006EAF;" edge="1" parent="1" source="bdcaNcctBoLjaKUvEYJE-110">
          <mxGeometry width="50" height="50" relative="1" as="geometry">
            <mxPoint x="126.25" y="1060" as="sourcePoint" />
            <mxPoint x="416.25" y="1280" as="targetPoint" />
          </mxGeometry>
        </mxCell>
        <mxCell id="bdcaNcctBoLjaKUvEYJE-108" value="" style="endArrow=none;html=1;rounded=0;strokeWidth=2;fillColor=#1ba1e2;strokeColor=#006EAF;" edge="1" parent="1" source="bdcaNcctBoLjaKUvEYJE-123">
          <mxGeometry width="50" height="50" relative="1" as="geometry">
            <mxPoint x="126.25" y="1060" as="sourcePoint" />
            <mxPoint x="830" y="880" as="targetPoint" />
          </mxGeometry>
        </mxCell>
        <mxCell id="bdcaNcctBoLjaKUvEYJE-109" value="" style="endArrow=none;html=1;rounded=0;strokeWidth=2;fillColor=#1ba1e2;strokeColor=#006EAF;" edge="1" parent="1" target="bdcaNcctBoLjaKUvEYJE-110">
          <mxGeometry width="50" height="50" relative="1" as="geometry">
            <mxPoint x="126.25" y="1060" as="sourcePoint" />
            <mxPoint x="336.25" y="1220" as="targetPoint" />
          </mxGeometry>
        </mxCell>
        <mxCell id="bdcaNcctBoLjaKUvEYJE-110" value="" style="ellipse;whiteSpace=wrap;html=1;aspect=fixed;fillColor=#1ba1e2;fontColor=#ffffff;strokeColor=none;" vertex="1" parent="1">
          <mxGeometry x="256.25" y="1160" width="15" height="15" as="geometry" />
        </mxCell>
        <mxCell id="bdcaNcctBoLjaKUvEYJE-111" value="" style="ellipse;whiteSpace=wrap;html=1;aspect=fixed;fillColor=none;fontColor=#ffffff;strokeColor=#000000;" vertex="1" parent="1">
          <mxGeometry x="136.25" y="1110" width="15" height="15" as="geometry" />
        </mxCell>
        <mxCell id="bdcaNcctBoLjaKUvEYJE-112" value="" style="ellipse;whiteSpace=wrap;html=1;aspect=fixed;fillColor=none;fontColor=#ffffff;strokeColor=#000000;" vertex="1" parent="1">
          <mxGeometry x="186.25" y="1150" width="15" height="15" as="geometry" />
        </mxCell>
        <mxCell id="bdcaNcctBoLjaKUvEYJE-113" value="" style="ellipse;whiteSpace=wrap;html=1;aspect=fixed;fillColor=#1ba1e2;fontColor=#ffffff;strokeColor=#006EAF;" vertex="1" parent="1">
          <mxGeometry x="321.25" y="1140" width="15" height="15" as="geometry" />
        </mxCell>
        <mxCell id="bdcaNcctBoLjaKUvEYJE-114" value="" style="ellipse;whiteSpace=wrap;html=1;aspect=fixed;fillColor=#1ba1e2;fontColor=#ffffff;strokeColor=#006EAF;" vertex="1" parent="1">
          <mxGeometry x="391.25" y="1094" width="15" height="15" as="geometry" />
        </mxCell>
        <mxCell id="bdcaNcctBoLjaKUvEYJE-115" value="" style="ellipse;whiteSpace=wrap;html=1;aspect=fixed;fillColor=#1ba1e2;fontColor=#ffffff;strokeColor=#006EAF;" vertex="1" parent="1">
          <mxGeometry x="436.25" y="1030" width="15" height="15" as="geometry" />
        </mxCell>
        <mxCell id="bdcaNcctBoLjaKUvEYJE-116" value="" style="endArrow=open;html=1;rounded=0;dashed=1;endFill=0;exitX=0.5;exitY=1;exitDx=0;exitDy=0;entryX=0;entryY=0;entryDx=0;entryDy=0;" edge="1" parent="1" source="bdcaNcctBoLjaKUvEYJE-125" target="bdcaNcctBoLjaKUvEYJE-111">
          <mxGeometry width="50" height="50" relative="1" as="geometry">
            <mxPoint x="123.75" y="1065" as="sourcePoint" />
            <mxPoint x="106.25" y="1123" as="targetPoint" />
          </mxGeometry>
        </mxCell>
        <mxCell id="bdcaNcctBoLjaKUvEYJE-117" value="" style="endArrow=open;html=1;rounded=0;dashed=1;endFill=0;exitX=1;exitY=1;exitDx=0;exitDy=0;entryX=0;entryY=0.5;entryDx=0;entryDy=0;" edge="1" parent="1" source="bdcaNcctBoLjaKUvEYJE-111" target="bdcaNcctBoLjaKUvEYJE-112">
          <mxGeometry width="50" height="50" relative="1" as="geometry">
            <mxPoint x="137.25" y="1143" as="sourcePoint" />
            <mxPoint x="158.25" y="1192" as="targetPoint" />
          </mxGeometry>
        </mxCell>
        <mxCell id="bdcaNcctBoLjaKUvEYJE-118" value="" style="endArrow=open;html=1;rounded=0;dashed=1;endFill=0;exitX=1;exitY=1;exitDx=0;exitDy=0;entryX=0;entryY=0.5;entryDx=0;entryDy=0;" edge="1" parent="1" source="bdcaNcctBoLjaKUvEYJE-112" target="bdcaNcctBoLjaKUvEYJE-110">
          <mxGeometry width="50" height="50" relative="1" as="geometry">
            <mxPoint x="197.25" y="1175" as="sourcePoint" />
            <mxPoint x="239.25" y="1209" as="targetPoint" />
          </mxGeometry>
        </mxCell>
        <mxCell id="bdcaNcctBoLjaKUvEYJE-119" value="" style="endArrow=open;html=1;rounded=0;dashed=1;endFill=0;exitX=1;exitY=0.5;exitDx=0;exitDy=0;entryX=0;entryY=1;entryDx=0;entryDy=0;fillColor=#1ba1e2;strokeColor=#006EAF;strokeWidth=1;" edge="1" parent="1" source="bdcaNcctBoLjaKUvEYJE-110" target="bdcaNcctBoLjaKUvEYJE-113">
          <mxGeometry width="50" height="50" relative="1" as="geometry">
            <mxPoint x="246.25" y="1109" as="sourcePoint" />
            <mxPoint x="305.25" y="1115" as="targetPoint" />
          </mxGeometry>
        </mxCell>
        <mxCell id="bdcaNcctBoLjaKUvEYJE-120" value="" style="endArrow=open;html=1;rounded=0;dashed=1;endFill=0;exitX=1;exitY=0.5;exitDx=0;exitDy=0;entryX=0;entryY=1;entryDx=0;entryDy=0;fillColor=#1ba1e2;strokeColor=#006EAF;strokeWidth=1;" edge="1" parent="1" source="bdcaNcctBoLjaKUvEYJE-113" target="bdcaNcctBoLjaKUvEYJE-114">
          <mxGeometry width="50" height="50" relative="1" as="geometry">
            <mxPoint x="316.25" y="1107.5" as="sourcePoint" />
            <mxPoint x="363.25" y="1087.5" as="targetPoint" />
          </mxGeometry>
        </mxCell>
        <mxCell id="bdcaNcctBoLjaKUvEYJE-121" value="" style="endArrow=open;html=1;rounded=0;dashed=1;endFill=0;exitX=1;exitY=0;exitDx=0;exitDy=0;entryX=0.5;entryY=1;entryDx=0;entryDy=0;fillColor=#1ba1e2;strokeColor=#006EAF;strokeWidth=1;" edge="1" parent="1" source="bdcaNcctBoLjaKUvEYJE-114" target="bdcaNcctBoLjaKUvEYJE-115">
          <mxGeometry width="50" height="50" relative="1" as="geometry">
            <mxPoint x="380.25" y="1067.5" as="sourcePoint" />
            <mxPoint x="427.25" y="1047.5" as="targetPoint" />
          </mxGeometry>
        </mxCell>
        <mxCell id="bdcaNcctBoLjaKUvEYJE-122" value="" style="endArrow=none;html=1;rounded=0;strokeWidth=2;fillColor=#1ba1e2;strokeColor=#006EAF;" edge="1" parent="1" target="bdcaNcctBoLjaKUvEYJE-123">
          <mxGeometry width="50" height="50" relative="1" as="geometry">
            <mxPoint x="126.25" y="1060" as="sourcePoint" />
            <mxPoint x="626.25" y="930" as="targetPoint" />
          </mxGeometry>
        </mxCell>
        <mxCell id="bdcaNcctBoLjaKUvEYJE-123" value="" style="ellipse;whiteSpace=wrap;html=1;aspect=fixed;fillColor=#1ba1e2;fontColor=#ffffff;strokeColor=none;" vertex="1" parent="1">
          <mxGeometry x="466.25" y="960" width="15" height="15" as="geometry" />
        </mxCell>
        <mxCell id="bdcaNcctBoLjaKUvEYJE-124" value="" style="endArrow=open;html=1;rounded=0;dashed=1;endFill=0;exitX=1;exitY=0;exitDx=0;exitDy=0;entryX=0.5;entryY=1;entryDx=0;entryDy=0;strokeWidth=1;fillColor=#1ba1e2;strokeColor=#006EAF;" edge="1" parent="1" source="bdcaNcctBoLjaKUvEYJE-115" target="bdcaNcctBoLjaKUvEYJE-123">
          <mxGeometry width="50" height="50" relative="1" as="geometry">
            <mxPoint x="466.25" y="1030" as="sourcePoint" />
            <mxPoint x="506.25" y="979" as="targetPoint" />
          </mxGeometry>
        </mxCell>
        <mxCell id="bdcaNcctBoLjaKUvEYJE-125" value="" style="ellipse;whiteSpace=wrap;html=1;aspect=fixed;fillColor=#1ba1e2;fontColor=#ffffff;strokeColor=none;" vertex="1" parent="1">
          <mxGeometry x="116.25" y="1050" width="15" height="15" as="geometry" />
        </mxCell>
        <mxCell id="bdcaNcctBoLjaKUvEYJE-126" value="" style="endArrow=classicThin;html=1;rounded=0;fillColor=#e51400;strokeColor=#E51400;strokeWidth=2;dashed=1;endFill=1;exitX=1;exitY=1;exitDx=0;exitDy=0;entryX=0;entryY=0.5;entryDx=0;entryDy=0;" edge="1" parent="1" source="bdcaNcctBoLjaKUvEYJE-125" target="bdcaNcctBoLjaKUvEYJE-143">
          <mxGeometry width="50" height="50" relative="1" as="geometry">
            <mxPoint x="146.25" y="1040" as="sourcePoint" />
            <mxPoint x="315" y="1070" as="targetPoint" />
          </mxGeometry>
        </mxCell>
        <mxCell id="bdcaNcctBoLjaKUvEYJE-129" value="&lt;font style=&quot;font-size: 18px;&quot;&gt;$${\boldsymbol{x}}_{i}^{j}$$&lt;/font&gt;" style="text;html=1;strokeColor=none;fillColor=none;align=center;verticalAlign=middle;whiteSpace=wrap;rounded=0;" vertex="1" parent="1">
          <mxGeometry x="88.75" y="1020" width="80" height="19" as="geometry" />
        </mxCell>
        <mxCell id="bdcaNcctBoLjaKUvEYJE-130" value="&lt;font style=&quot;font-size: 16px;&quot;&gt;$$x^{\prime}_f$$&lt;/font&gt;" style="text;html=1;strokeColor=none;fillColor=none;align=center;verticalAlign=middle;whiteSpace=wrap;rounded=0;" vertex="1" parent="1">
          <mxGeometry x="251.25" y="1180" width="25" height="20" as="geometry" />
        </mxCell>
        <mxCell id="bdcaNcctBoLjaKUvEYJE-131" value="&lt;font style=&quot;font-size: 16px;&quot;&gt;$$x^{\prime}_e$$&lt;/font&gt;" style="text;html=1;strokeColor=none;fillColor=none;align=center;verticalAlign=middle;whiteSpace=wrap;rounded=0;" vertex="1" parent="1">
          <mxGeometry x="465.25" y="936" width="25" height="20" as="geometry" />
        </mxCell>
        <mxCell id="bdcaNcctBoLjaKUvEYJE-132" value="" style="endArrow=none;html=1;strokeWidth=1.5;curved=1;" edge="1" parent="1">
          <mxGeometry width="50" height="50" relative="1" as="geometry">
            <mxPoint x="186.25" y="1230" as="sourcePoint" />
            <mxPoint x="206.25" y="910" as="targetPoint" />
            <Array as="points">
              <mxPoint x="276.25" y="1070" />
              <mxPoint x="276.25" y="950" />
            </Array>
          </mxGeometry>
        </mxCell>
        <mxCell id="bdcaNcctBoLjaKUvEYJE-133" value="&lt;font style=&quot;font-size: 18px;&quot;&gt;决策边界&lt;/font&gt;" style="text;html=1;strokeColor=none;fillColor=none;align=center;verticalAlign=middle;whiteSpace=wrap;rounded=0;" vertex="1" parent="1">
          <mxGeometry x="251.25" y="920" width="80" height="30" as="geometry" />
        </mxCell>
        <mxCell id="bdcaNcctBoLjaKUvEYJE-134" value="&lt;font style=&quot;font-size: 16px;&quot;&gt;对抗空间&lt;/font&gt;" style="text;html=1;strokeColor=none;fillColor=none;align=center;verticalAlign=middle;whiteSpace=wrap;rounded=0;" vertex="1" parent="1">
          <mxGeometry x="566.25" y="1200" width="70" height="20" as="geometry" />
        </mxCell>
        <mxCell id="bdcaNcctBoLjaKUvEYJE-135" value="&lt;font style=&quot;font-size: 16px;&quot;&gt;非对抗空间&lt;/font&gt;" style="text;html=1;strokeColor=none;fillColor=none;align=center;verticalAlign=middle;whiteSpace=wrap;rounded=0;" vertex="1" parent="1">
          <mxGeometry x="88.75" y="1200" width="87.5" height="20" as="geometry" />
        </mxCell>
        <mxCell id="bdcaNcctBoLjaKUvEYJE-139" value="&lt;font style=&quot;font-size: 18px;&quot;&gt;$$\bar{\boldsymbol{x}}_{i}^{j}$$&lt;/font&gt;" style="text;whiteSpace=wrap;html=1;" vertex="1" parent="1">
          <mxGeometry x="383.75" y="1038.25" width="30" height="38.5" as="geometry" />
        </mxCell>
        <mxCell id="bdcaNcctBoLjaKUvEYJE-142" value="" style="endArrow=none;html=1;rounded=0;dashed=1;endFill=0;exitX=1;exitY=0;exitDx=0;exitDy=0;entryX=0;entryY=1;entryDx=0;entryDy=0;strokeWidth=2;fillColor=#1ba1e2;strokeColor=#006EAF;" edge="1" parent="1" source="bdcaNcctBoLjaKUvEYJE-110" target="bdcaNcctBoLjaKUvEYJE-123">
          <mxGeometry width="50" height="50" relative="1" as="geometry">
            <mxPoint x="381.25" y="1062" as="sourcePoint" />
            <mxPoint x="406.25" y="1005" as="targetPoint" />
          </mxGeometry>
        </mxCell>
        <mxCell id="bdcaNcctBoLjaKUvEYJE-143" value="" style="ellipse;whiteSpace=wrap;html=1;aspect=fixed;fillColor=#FFCCCC;fontColor=#ffffff;strokeColor=none;" vertex="1" parent="1">
          <mxGeometry x="365" y="1057" width="13" height="13" as="geometry" />
        </mxCell>
        <mxCell id="bdcaNcctBoLjaKUvEYJE-144" value="" style="endArrow=classicThin;html=1;rounded=0;fillColor=#fad9d5;strokeColor=#EA6B66;strokeWidth=2;dashed=1;endFill=1;exitX=1;exitY=1;exitDx=0;exitDy=0;entryX=0;entryY=0.5;entryDx=0;entryDy=0;" edge="1" parent="1">
          <mxGeometry width="50" height="50" relative="1" as="geometry">
            <mxPoint x="378" y="1064" as="sourcePoint" />
            <mxPoint x="614" y="1065" as="targetPoint" />
          </mxGeometry>
        </mxCell>
        <mxCell id="bdcaNcctBoLjaKUvEYJE-145" value="" style="endArrow=none;html=1;rounded=0;strokeWidth=3;strokeColor=#00994D;" edge="1" parent="1">
          <mxGeometry width="50" height="50" relative="1" as="geometry">
            <mxPoint x="267.5" y="1085" as="sourcePoint" />
            <mxPoint x="277.5" y="1045" as="targetPoint" />
          </mxGeometry>
        </mxCell>
        <mxCell id="bdcaNcctBoLjaKUvEYJE-146" value="" style="shape=flexArrow;endArrow=classic;html=1;rounded=0;" edge="1" parent="1">
          <mxGeometry width="50" height="50" relative="1" as="geometry">
            <mxPoint x="271.25" y="1054" as="sourcePoint" />
            <mxPoint x="131.25" y="954" as="targetPoint" />
          </mxGeometry>
        </mxCell>
        <mxCell id="bdcaNcctBoLjaKUvEYJE-147" value="&lt;font style=&quot;font-size: 14px;&quot;&gt;rat_mdf3&lt;/font&gt;" style="text;html=1;strokeColor=none;fillColor=none;align=center;verticalAlign=middle;whiteSpace=wrap;rounded=0;" vertex="1" parent="1">
          <mxGeometry x="91.25" y="926" width="60" height="30" as="geometry" />
        </mxCell>
        <mxCell id="bdcaNcctBoLjaKUvEYJE-148" value="" style="ellipse;whiteSpace=wrap;html=1;aspect=fixed;fillColor=#00994D;fontColor=#ffffff;strokeColor=none;" vertex="1" parent="1">
          <mxGeometry x="234" y="1142" width="15" height="15" as="geometry" />
        </mxCell>
        <mxCell id="bdcaNcctBoLjaKUvEYJE-149" value="" style="ellipse;whiteSpace=wrap;html=1;aspect=fixed;fillColor=#00994D;fontColor=#ffffff;strokeColor=none;" vertex="1" parent="1">
          <mxGeometry x="280.75" y="1009" width="15" height="15" as="geometry" />
        </mxCell>
        <mxCell id="bdcaNcctBoLjaKUvEYJE-150" value="" style="endArrow=none;html=1;rounded=0;dashed=1;endFill=0;exitX=1;exitY=0;exitDx=0;exitDy=0;strokeWidth=2;fillColor=#1ba1e2;strokeColor=#00994D;" edge="1" parent="1">
          <mxGeometry width="50" height="50" relative="1" as="geometry">
            <mxPoint x="249" y="1142" as="sourcePoint" />
            <mxPoint x="420" y="980" as="targetPoint" />
          </mxGeometry>
        </mxCell>
        <mxCell id="bdcaNcctBoLjaKUvEYJE-151" value="" style="endArrow=none;html=1;rounded=0;dashed=1;endFill=0;strokeWidth=2;fillColor=#1ba1e2;strokeColor=#00994D;" edge="1" parent="1">
          <mxGeometry width="50" height="50" relative="1" as="geometry">
            <mxPoint x="400" y="1270" as="sourcePoint" />
            <mxPoint x="800" y="890" as="targetPoint" />
          </mxGeometry>
        </mxCell>
        <mxCell id="bdcaNcctBoLjaKUvEYJE-152" value="" style="shape=flexArrow;endArrow=classic;html=1;rounded=0;" edge="1" parent="1">
          <mxGeometry width="50" height="50" relative="1" as="geometry">
            <mxPoint x="346.25" y="1036" as="sourcePoint" />
            <mxPoint x="380" y="920" as="targetPoint" />
          </mxGeometry>
        </mxCell>
        <mxCell id="bdcaNcctBoLjaKUvEYJE-153" value="&lt;font style=&quot;font-size: 14px;&quot;&gt;rat_mdf3&lt;/font&gt;" style="text;html=1;strokeColor=none;fillColor=none;align=center;verticalAlign=middle;whiteSpace=wrap;rounded=0;" vertex="1" parent="1">
          <mxGeometry x="350" y="890" width="60" height="30" as="geometry" />
        </mxCell>
      </root>
    </mxGraphModel>
  </diagram>
</mxfile>
